<svg width="150" height="26" viewBox="0 0 150 26" fill="none" xmlns="http://www.w3.org/2000/svg">
<path d="M10.6023 0.318153H15.4659V16.5454C15.4659 18.0454 15.1288 19.3485 14.4545 20.4545C13.7879 21.5606 12.8598 22.4129 11.6704 23.0113C10.481 23.6098 9.09847 23.9091 7.52272 23.9091C6.1212 23.9091 4.84847 23.6629 3.70453 23.1704C2.56817 22.6704 1.66666 21.9129 0.999989 20.8977C0.333322 19.875 0.00377679 18.5909 0.0113525 17.0454H4.90908C4.92423 17.6591 5.04923 18.1856 5.28408 18.625C5.5265 19.0568 5.85605 19.3901 6.27272 19.625C6.69696 19.8522 7.19696 19.9659 7.77272 19.9659C8.37878 19.9659 8.89014 19.8371 9.30681 19.5795C9.73105 19.3144 10.053 18.928 10.2727 18.4204C10.4924 17.9129 10.6023 17.2879 10.6023 16.5454V0.318153ZM23.5454 23.5909H18.2727L26.3068 0.318153H32.6477L40.6704 23.5909H35.3977L29.5682 5.63634H29.3864L23.5454 23.5909ZM23.2159 14.4432H35.6704V18.2841H23.2159V14.4432ZM62.9375 0.318153V23.5909H58.6875L48.5625 8.94315H48.392V23.5909H43.4716V0.318153H47.7898L57.8352 14.9545H58.0398V0.318153H62.9375ZM71.0142 23.5909H65.7415L73.7756 0.318153H80.1165L88.1392 23.5909H82.8665L77.0369 5.63634H76.8551L71.0142 23.5909ZM70.6846 14.4432H83.1392V18.2841H70.6846V14.4432ZM90.9403 23.5909V0.318153H95.8608V19.5341H105.838V23.5909H90.9403ZM104.764 0.318153H110.276L115.582 10.3409H115.81L121.116 0.318153H126.628L118.139 15.3636V23.5909H113.253V15.3636L104.764 0.318153ZM136.693 15.5H140.875L142.977 18.2045L145.045 20.6136L148.943 25.5H144.352L141.67 22.2045L140.295 20.25L136.693 15.5ZM149.295 11.9545C149.295 14.4924 148.814 16.6515 147.852 18.4318C146.898 20.2121 145.595 21.5719 143.943 22.5113C142.299 23.4432 140.451 23.9091 138.398 23.9091C136.33 23.9091 134.473 23.4394 132.83 22.5C131.186 21.5606 129.886 20.2007 128.932 18.4204C127.977 16.6401 127.5 14.4848 127.5 11.9545C127.5 9.41664 127.977 7.25755 128.932 5.47725C129.886 3.69694 131.186 2.34088 132.83 1.40906C134.473 0.469669 136.33 -2.86102e-05 138.398 -2.86102e-05C140.451 -2.86102e-05 142.299 0.469669 143.943 1.40906C145.595 2.34088 146.898 3.69694 147.852 5.47725C148.814 7.25755 149.295 9.41664 149.295 11.9545ZM144.307 11.9545C144.307 10.3106 144.061 8.92421 143.568 7.79543C143.083 6.66664 142.398 5.81058 141.511 5.22725C140.625 4.64391 139.587 4.35225 138.398 4.35225C137.208 4.35225 136.17 4.64391 135.284 5.22725C134.398 5.81058 133.708 6.66664 133.216 7.79543C132.731 8.92421 132.489 10.3106 132.489 11.9545C132.489 13.5985 132.731 14.9848 133.216 16.1136C133.708 17.2424 134.398 18.0985 135.284 18.6818C136.17 19.2651 137.208 19.5568 138.398 19.5568C139.587 19.5568 140.625 19.2651 141.511 18.6818C142.398 18.0985 143.083 17.2424 143.568 16.1136C144.061 14.9848 144.307 13.5985 144.307 11.9545Z" fill="#C1121F"/>
</svg>
